<svg class="svg-icon" style="width: 1em; height: 1em;vertical-align: middle;fill: #FFBB5C;overflow: hidden;" viewBox="0 0 1024 1024" version="1.1" xmlns="http://www.w3.org/2000/svg"><path d="M410.408252 440.82234l113.236796-77.511648 332.270826 239.229585-332.270826 248.76545-349.488838-248.76545 96.69501-66.189686" fill="#FAEAB1" /><path d="M513.073375 608.900025L77.530969 298.883488 513.074449 0.748143l435.541333 298.135345L513.073375 608.900025zM195.272721 299.963304L513.073375 526.172847l317.799581-226.209543L513.073375 82.424486 195.272721 299.963304zM74.985996 697.718608c-18.611254 0-33.69969-15.088436-33.69969-33.69969V462.388595c0-18.611254 15.087363-33.69969 33.69969-33.699689s33.69969 15.087363 33.69969 33.699689v201.633543c0 18.61018-15.088436 33.697543-33.69969 33.697543z"  /><path d="M513.046541 1023.477266a33.545124 33.545124 0 0 1-20.181602-6.733283L66.012579 696.889962c-14.893082-11.159883-17.92-32.280688-6.760118-47.174843 11.159883-14.893082 32.281761-17.922147 47.175916-6.760117l426.853434 319.855094c14.894155 11.158809 17.92 32.279614 6.760118 47.174843-6.618432 8.833878-16.744654 13.492327-26.994315 13.492327z"  /><path d="M524.329862 1023.477266c-10.121929 0-20.127933-4.539304-26.763539-13.191782-11.327329-14.767497-8.537627-35.921577 6.230943-47.248905l424.727078-325.756512c14.76535-11.326256 35.920503-8.539774 47.249979 6.232017 11.325182 14.767497 8.53548 35.921577-6.23309 47.249979L544.815229 1016.516428a33.564444 33.564444 0 0 1-20.485367 6.959765z"  /><path d="M949.032252 685.486423c-18.611254 0-33.69969-15.088436-33.69969-33.699689V73.421015c0-18.611254 15.088436-33.69969 33.69969-33.69969s33.69969 15.087363 33.699689 33.69969v578.366792c0 18.61018-15.088436 33.698616-33.699689 33.698616z"  /></svg>